<svg id="visual" viewBox="0 0 1920 1080" width="1920" height="1080" xmlns="http://www.w3.org/2000/svg" xmlns:xlink="http://www.w3.org/1999/xlink" version="1.1"><rect x="0" y="0" width="1920" height="1080" fill="#FFFFFF"></rect><path d="M0 884L274 884L274 789L549 789L549 825L823 825L823 780L1097 780L1097 923L1371 923L1371 872L1646 872L1646 756L1920 756L1920 911L1920 1081L1920 1081L1646 1081L1646 1081L1371 1081L1371 1081L1097 1081L1097 1081L823 1081L823 1081L549 1081L549 1081L274 1081L274 1081L0 1081Z" fill="#560090"></path><path d="M0 966L274 966L274 967L549 967L549 922L823 922L823 874L1097 874L1097 913L1371 913L1371 886L1646 886L1646 889L1920 889L1920 858L1920 1081L1920 1081L1646 1081L1646 1081L1371 1081L1371 1081L1097 1081L1097 1081L823 1081L823 1081L549 1081L549 1081L274 1081L274 1081L0 1081Z" fill="#a020ec"></path><path d="M0 968L274 968L274 892L549 892L549 881L823 881L823 991L1097 991L1097 913L1371 913L1371 981L1646 981L1646 958L1920 958L1920 873L1920 1081L1920 1081L1646 1081L1646 1081L1371 1081L1371 1081L1097 1081L1097 1081L823 1081L823 1081L549 1081L549 1081L274 1081L274 1081L0 1081Z" fill="#a020ec"></path><path d="M0 954L274 954L274 972L549 972L549 1044L823 1044L823 1000L1097 1000L1097 1025L1371 1025L1371 1035L1646 1035L1646 945L1920 945L1920 998L1920 1081L1920 1081L1646 1081L1646 1081L1371 1081L1371 1081L1097 1081L1097 1081L823 1081L823 1081L549 1081L549 1081L274 1081L274 1081L0 1081Z" fill="#560090"></path></svg>