<svg id="visual" viewBox="0 0 1920 1080" width="1920" height="1080" xmlns="http://www.w3.org/2000/svg" xmlns:xlink="http://www.w3.org/1999/xlink" version="1.1"><rect x="0" y="0" width="1920" height="1080" fill="#FFFFFF"></rect><path d="M0 709L274 698L549 802L823 791L1097 712L1371 748L1646 721L1920 630L1920 1081L1646 1081L1371 1081L1097 1081L823 1081L549 1081L274 1081L0 1081Z" fill="#13011d"></path><path d="M0 783L274 733L549 719L823 845L1097 797L1371 855L1646 790L1920 817L1920 1081L1646 1081L1371 1081L1097 1081L823 1081L549 1081L274 1081L0 1081Z" fill="#30154f"></path><path d="M0 896L274 826L549 836L823 793L1097 815L1371 887L1646 856L1920 795L1920 1081L1646 1081L1371 1081L1097 1081L823 1081L549 1081L274 1081L0 1081Z" fill="#551f87"></path><path d="M0 965L274 969L549 884L823 900L1097 922L1371 922L1646 943L1920 945L1920 1081L1646 1081L1371 1081L1097 1081L823 1081L549 1081L274 1081L0 1081Z" fill="#8026c2"></path><path d="M0 995L274 1031L549 991L823 995L1097 1020L1371 974L1646 992L1920 1002L1920 1081L1646 1081L1371 1081L1097 1081L823 1081L549 1081L274 1081L0 1081Z" fill="#b026ff"></path></svg>