<svg id="visual" viewBox="0 0 900 600" width="900" height="600" xmlns="http://www.w3.org/2000/svg" xmlns:xlink="http://www.w3.org/1999/xlink" version="1.1"><rect x="0" y="0" width="900" height="600" fill="#FFFFFF"></rect><g fill="#b026ff"><path d="M32.7 18.9L32.7 84.2L-32.7 84.2L-32.7 18.9L-89.2 -13.8L-56.6 -70.4L0 -37.7L56.6 -70.4L89.2 -13.8Z" transform="translate(867 278)"></path><path d="M14.3 8.3L14.3 36.9L-14.3 36.9L-14.3 8.3L-39.1 -6L-24.8 -30.8L0 -16.5L24.8 -30.8L39.1 -6Z" transform="translate(234 94)"></path><path d="M25.9 15L25.9 66.8L-25.9 66.8L-25.9 15L-70.8 -10.9L-44.9 -55.8L0 -29.9L44.9 -55.8L70.8 -10.9Z" transform="translate(448 576)"></path><path d="M32.1 18.5L32.1 82.8L-32.1 82.8L-32.1 18.5L-87.7 -13.6L-55.6 -69.2L0 -37.1L55.6 -69.2L87.7 -13.6Z" transform="translate(26 440)"></path></g></svg>